<?xml version="1.0" encoding="utf-8"?>
<!-- Generator: Adobe Illustrator 24.0.3, SVG Export Plug-In . SVG Version: 6.00 Build 0)  -->
<svg version="1.1" id="Layer_1" xmlns="http://www.w3.org/2000/svg" xmlns:xlink="http://www.w3.org/1999/xlink" x="0px" y="0px"
	 viewBox="0 0 612 792" style="enable-background:new 0 0 612 792;" xml:space="preserve">
<style type="text/css">
	.st0{fill:#BE3939;}
	.st1{fill:#BF2B61;}
</style>
<g>
	<g>
		<g>
			<g>
				<path class="st0" d="M286.5,524.2c0-1.4-0.1-2.8-0.1-4.2c0-38.3,0-76.7,0.1-115c0-3.1-0.7-4.1-3.9-4c-5.2,0.3-10.4,0.3-15.6,0
					c-2.8-0.1-3.8,0.8-4.5,3.5c-9,34.2-18.1,68.4-27.1,102.6c-1.3,4.9-2.7,9.8-3.9,14.8c-0.4,1.7-1,2.5-3,2.5
					c-14-0.1-27.9-0.1-41.9,0c-3.4,0-2.2-1.6-1.7-3.3c11.1-39,22.1-77.9,33.1-116.9c1-3.6,2.1-7.2,3.1-10.9c0.4-1.5,0.4-2.5-1.2-3.5
					c-19.3-13-28.1-31.9-29-54.5c-0.7-16.4-1-32.9,0.4-49.3c2.8-31.9,27.4-56.5,59.3-59.3c5.3-0.5,10.6-0.7,15.9-0.7
					c20.6,0,41.2,0,61.8,0c1.2,0,2.6-0.6,3.7,0.5c0,14.3,0,28.6,0,42.9c0,70.9,0,141.8,0,212.8c0,12.9-0.1,25.7,0,38.6
					c0,2.5-0.5,3.5-3.3,3.5C314.6,524.1,300.6,524.2,286.5,524.2z M286.4,313.4c0-14,0-27.9,0-41.9c0-1.4,0.5-3.2-2.1-3.1
					c-8.9,0.3-17.8-0.6-26.6,0.6c-12.9,1.8-21,10.5-21.7,23.6c-0.7,13.8-0.7,27.7,0,41.5c0.7,14,10.1,23.3,24.1,23.9
					c7.7,0.3,15.4,0.1,23,0.4c2.8,0.1,3.3-1,3.2-3.5C286.3,341.1,286.4,327.3,286.4,313.4z"/>
				<path class="st1" d="M332,269.4c0-14.3,0-28.6,0-42.9c8.2,0.1,16.3,0.1,24.5,0.1c16,0.1,31,3.4,44.2,12.9
					c16,11.5,23.9,27.6,26.4,46.7c0.7,5.5,0.8,11.1,0.8,16.6c0,49.7,0,99.4,0,149c0,13.2-1.9,26-8,37.8
					c-10.7,20.8-28.5,31.2-51,34.4c-5.6,0.8-11.3,0.8-17,0.8c-20.6,0-41.2,0-61.8,0c-1.1,0-2.6,0.8-3.5-0.7c14,0,28.1,0,42.2,0.1
					c2.8,0,3.3-1,3.3-3.5c-0.1-12.9,0-25.7,0-38.6c8.3,0,16.6,0.3,24.8,0c7.3-0.3,14.2-2.2,19.4-8.1c5.5-6.4,6.4-14,6.4-21.9
					c0-50.9,0-101.7,0-152.6c0-2.5-0.1-5-0.3-7.4c-1-10.9-7.5-18.8-18.1-21.4C353.6,268,342.8,269.5,332,269.4z"/>
			</g>
		</g>
	</g>
</g>
</svg>
